#!OML:ASF I:\Actors\actors\Patient Classification 2\Patient 1\Session 1\actor1.ASF
:FULLY-SPECIFIED
:DEGREES
180
root -0.862471 18.1787 3.95237 3.06425 -13.9959 -1.35966
lowerback 14.6291 -1.83717 0.615715
upperback 4.67207 -2.47321 -2.53132
thorax -3.39433 -1.22837 -2.57376
lowerneck -15.3816 1.49259 2.97431
upperneck 29.1282 0.554082 1.91325
head 12.1606 0.769839 0.279272
rclavicle 2.26615e-014 -7.95139e-016
rhumerus -73.8543 28.2062 -98.1064
rradius 86.8008
rwrist -22.9653
rhand -20.7852 -68.0476
rfingers 7.12502
rthumb 5.58173 -262.046
lclavicle 2.26615e-014 -7.95139e-016
lhumerus -23.1677 -17.5596 101.174
lradius 64.4043
lwrist 81.2807
lhand -39.0092 -16.06
lfingers 7.12502
lthumb -12.0125 13.5752
rfemur 10.5277 8.6532 16.3531
rtibia -20.2465
rfoot -1.02204 -15.2831
rtoes 0.139868
lfemur 13.1139 2.45676 -13.4214
ltibia -14.5244
lfoot -4.2484 20.07
ltoes -10.4852
181
root -0.870632 18.1772 3.93397 3.11045 -14.7307 -1.43328
lowerback 15.0919 -1.86923 0.665412
upperback 4.89152 -2.51487 -2.6403
thorax -3.42058 -1.24836 -2.70094
lowerneck -15.4334 1.77787 3.2871
upperneck 29.0751 0.908315 1.78127
head 12.1564 0.942336 0.2282
rclavicle -1.07344e-014 1.43125e-014
rhumerus -74.9142 28.5496 -97.7516
rradius 88.0061
rwrist -20.5173
rhand -15.7536 -69.806
rfingers 7.12502
rthumb 10.4379 -260.473
lclavicle -1.07344e-014 1.43125e-014
lhumerus -24.1892 -18.9302 101.361
lradius 65.5971
lwrist 82.3492
lhand -39.0969 -16.03
lfingers 7.12502
lthumb -12.0971 13.6003
rfemur 10.2479 8.89744 16.4371
rtibia -20.1728
rfoot -0.703664 -14.9018
rtoes 0.139583
lfemur 13.2372 2.73846 -13.3516
ltibia -14.6047
lfoot -4.32723 20.4863
ltoes -10.6139
182
root -0.879634 18.178 3.91791 3.14453 -15.4495 -1.40597
lowerback 15.5279 -1.87231 0.59113
upperback 5.10124 -2.53754 -2.76177
thorax -3.43623 -1.25907 -2.77513
lowerneck -15.4986 2.05617 3.66736
upperneck 28.9761 1.27227 1.52465
head 12.1402 1.11031 0.120282
rclavicle -1.55052e-014 3.81667e-014
rhumerus -76.6357 29.5371 -98.0395
rradius 88.9723
rwrist -19.6788
rhand -13.8476 -70.275
rfingers 7.12502
rthumb 12.276 -260.105
lclavicle -1.55052e-014 3.81667e-014
lhumerus -25.4042 -20.3079 101.627
lradius 67.1499
lwrist 83.7205
lhand -39.3949 -16.0311
lfingers 7.12502
lthumb -12.3844 13.5821
rfemur 9.98649 9.09219 16.412
rtibia -20.1253
rfoot -0.306887 -14.4936
rtoes -0.361291
lfemur 13.3344 2.91834 -13.4033
ltibia -14.6378
lfoot -4.49411 20.9539
ltoes -10.3132
183
root -0.890015 18.1794 3.89922 3.2269 -16.1557 -1.41615
lowerback 15.9925 -1.89327 0.482876
upperback 5.28842 -2.58842 -2.84243
thorax -3.48821 -1.28429 -2.78069
lowerneck -15.557 2.35325 4.02658
upperneck 28.8213 1.69551 1.18606
head 12.1041 1.29115 -0.00603808
rclavicle 6.36111e-014 2.06736e-014
rhumerus -78.4202 30.4301 -98.4259
rradius 90.2127
rwrist -19.9088
rhand -13.3047 -70.3614
rfingers 7.12502
rthumb 12.7995 -260.051
lclavicle 6.36111e-014 2.06736e-014
lhumerus -26.6822 -21.5068 101.913
lradius 68.8017
lwrist 84.7992
lhand -39.4637 -15.9248
lfingers 7.12502
lthumb -12.4508 13.6843
rfemur 9.70582 9.32824 16.4279
rtibia -20.1393
rfoot 0.0686206 -14.1765
rtoes -0.506289
lfemur 13.3475 3.23992 -13.3836
ltibia -14.6207
lfoot -4.62962 21.3127
ltoes -10.1001
184
root -0.900578 18.1798 3.87786 3.3379 -16.8538 -1.47277
lowerback 16.4787 -1.94127 0.383326
upperback 5.47088 -2.6742 -2.90853
thorax -3.557 -1.32698 -2.76811
lowerneck -15.6509 2.6774 4.31666
upperneck 28.6869 2.14024 0.955425
head 12.0852 1.48789 -0.0756151
rclavicle -3.18055e-015 1.59028e-015
rhumerus -80.2186 31.2528 -98.89
rradius 91.6229
rwrist -20.7504
rhand -13.5238 -69.7763
rfingers 7.12502
rthumb 12.5883 -260.623
lclavicle -3.18055e-015 1.59028e-015
lhumerus -27.9662 -22.557 102.141
lradius 70.5216
lwrist 85.6877
lhand -39.4666 -15.6642
lfingers 7.12502
lthumb -12.4535 13.9447
rfemur 9.43911 9.6375 16.496
rtibia -20.2276
rfoot 0.402246 -13.9581
rtoes 0.0145557
lfemur 13.3336 3.67865 -13.29
ltibia -14.6152
lfoot -4.69566 21.6069
ltoes -10.3509
185
root -0.911111 18.1802 3.85499 3.47185 -17.5499 -1.48133
lowerback 16.9539 -1.96315 0.23434
upperback 5.64645 -2.73598 -2.99411
thorax -3.6234 -1.358 -2.75251
lowerneck -15.7621 2.97256 4.58865
upperneck 28.5183 2.52118 0.810097
head 12.0566 1.66506 -0.11905
rclavicle -8.78628e-014 3.97569e-014
rhumerus -82.0755 31.9537 -99.4792
rradius 93.125
rwrist -21.9267
rhand -13.7845 -68.8687
rfingers 7.12502
rthumb 12.3369 -261.515
lclavicle -8.78628e-014 3.97569e-014
lhumerus -29.1989 -23.5869 102.337
lradius 72.2875
lwrist 86.5249
lhand -39.6468 -15.5766
lfingers 7.12502
lthumb -12.6273 14.0217
rfemur 9.17344 9.99771 16.5073
rtibia -20.3945
rfoot 0.759859 -13.7887
rtoes 0.357738
lfemur 13.3343 4.13928 -13.2498
ltibia -14.7022
lfoot -4.72866 21.8707
ltoes -10.4823
186
root -0.922158 18.1797 3.82903 3.67347 -18.2626 -1.50005
lowerback 17.437 -1.94103 0.0757248
upperback 5.80618 -2.74343 -3.06998
thorax -3.70582 -1.3625 -2.73156
lowerneck -15.8518 3.22654 4.99641
upperneck 28.2215 2.87087 0.454103
head 11.9803 1.8153 -0.269614
rclavicle 1.59028e-015 -2.38542e-014
rhumerus -83.7571 32.4761 -99.8392
rradius 94.3714
rwrist -22.3814
rhand -12.8063 -69.0858
rfingers 7.12502
rthumb 13.2799 -261.357
lclavicle 1.59028e-015 -2.38542e-014
lhumerus -30.2507 -24.4798 102.519
lradius 73.9714
lwrist 87.3363
lhand -39.9116 -15.8689
lfingers 7.12502
lthumb -12.8826 13.7134
rfemur 8.87035 10.4395 16.5167
rtibia -20.6559
rfoot 1.15696 -13.7325
rtoes 0.419511
lfemur 13.3129 4.67912 -13.2005
ltibia -14.884
lfoot -4.70879 22.0746
ltoes -10.5835
